<svg xmlns="http://www.w3.org/2000/svg" viewBox=" 0 4141.2 1968.39"><defs><style>.cls-1{fill:#0f0f0f;}.cls-2{fill:#1e1e1e;}.cls-3{fill:#756a3c;}.cls-4{fill:#c1af61;}.cls-5{fill:#d6c467;}.cls-6{fill:#726636;}.cls-7{fill:#fff;}.cls-8{fill:#217037;}.cls-9{fill:#1a5628;}.cls-10{fill:#b2b2b2;}.cls-11{fill:#702020;}.cls-12{fill:#9e2e2e;}.cls-13{fill:#212121;}.cls-14{fill:#3a3a3a;}.cls-15{fill:#6b6b6b;}.cls-16{fill:#a3a3a3;}.cls-17{fill:#244444;}.cls-18{fill:#447a79;}.cls-19{fill:#80d8ff;}.cls-20{fill:#878787;}.cls-21{fill:#b7b7b7;}.cls-22{fill:#a7d3d2;}.cls-23{fill:#97a0a0;}.cls-24{fill:#2d2020;}.cls-25{fill:#04041c;}</style></defs><g id="Layer_2" data-name="Layer 2"><g id="Layer_1-2" data-name="Layer 1"><rect class="cls-1" x="2221.2" y="79.13" width="67" height="631"/><rect class="cls-1" x="2455.2" y="175.91" width="155" height="535.19"/><rect class="cls-1" x="2651.2" y="324.95" width="151" height="389.05"/><rect class="cls-1" x="2780.2" y="443.02" width="94" height="267.11"/><rect class="cls-1" x="2970.2" y="23" width="159" height="687.13"/><rect class="cls-1" x="3114.2" y="7.22" width="2" height="15.78"/><rect class="cls-1" x="3120.98" width="1.22" height="22.98"/><rect class="cls-2" x="2564.2" y="414" width="142" height="300"/><rect class="cls-2" x="2254.2" y="441" width="133" height="273"/><rect class="cls-2" x="3035.2" y="401" width="71" height="289"/><polygon class="cls-2" points="2634.7 388 2670.45 401 2706.2 414 2634.7 414 2563.2 414 2598.95 401 2634.7 388"/><rect class="cls-3" x="2773.5" y="251.93" width="53.33" height="420.1"/><rect class="cls-4" x="2819.2" y="251.93" width="68" height="420.1"/><rect class="cls-5" x="2819.2" y="178" width="68" height="73.92"/><rect class="cls-6" x="2773.2" y="178" width="46" height="73.92"/><circle class="cls-7" cx="2853.58" cy="213.94" r="25.31"/><polygon class="cls-8" points="2853.25 123.82 2870.23 150.89 2887.2 177.96 2853.25 177.96 2819.3 177.96 2836.27 150.89 2853.25 123.82"/><polygon class="cls-9" points="2853.2 124 2807.2 124 2773.8 177.96 2819.2 178 2853.2 124"/><rect class="cls-10" x="2938.2" y="422" width="3" height="29"/><rect class="cls-11" x="2610.2" y="444" width="82" height="228"/><rect class="cls-12" x="2692.2" y="444" width="319" height="228"/><path class="cls-13" d="M2644.22,501h3.61a10,10,0,0,1,10,10v23.17a0,0,0,0,1,0,0H2634.2a0,0,0,0,1,0,0V511A10,10,0,0,1,2644.22,501Z"/><path class="cls-13" d="M2644.22,579h3.61a10,10,0,0,1,10,10v23.17a0,0,0,0,1,0,0H2634.2a0,0,0,0,1,0,0V589A10,10,0,0,1,2644.22,579Z"/><path class="cls-14" d="M2724.63,498h3.61a10,10,0,0,1,10,10v23.17a0,0,0,0,1,0,0h-23.65a0,0,0,0,1,0,0V508A10,10,0,0,1,2724.63,498Z"/><path class="cls-14" d="M2724.63,576h3.61a10,10,0,0,1,10,10v23.17a0,0,0,0,1,0,0h-23.65a0,0,0,0,1,0,0V586A10,10,0,0,1,2724.63,576Z"/><path class="cls-14" d="M2771.19,498h3.61a10,10,0,0,1,10,10v23.17a0,0,0,0,1,0,0h-23.65a0,0,0,0,1,0,0V508A10,10,0,0,1,2771.19,498Z"/><path class="cls-14" d="M2771.19,576.81h3.61a10,10,0,0,1,10,10V610a0,0,0,0,1,0,0h-23.65a0,0,0,0,1,0,0V586.83A10,10,0,0,1,2771.19,576.81Z"/><path class="cls-14" d="M2923,498h3.61a10,10,0,0,1,10,10v23.17a0,0,0,0,1,0,0H2913a0,0,0,0,1,0,0V508A10,10,0,0,1,2923,498Z"/><path class="cls-14" d="M2926,576.81h3.61a10,10,0,0,1,10,10V610a0,0,0,0,1,0,0H2916a0,0,0,0,1,0,0V586.83A10,10,0,0,1,2926,576.81Z"/><path class="cls-14" d="M2969.58,498h3.61a10,10,0,0,1,10,10v23.17a0,0,0,0,1,0,0h-23.65a0,0,0,0,1,0,0V508A10,10,0,0,1,2969.58,498Z"/><path class="cls-14" d="M2972.57,576.81h3.61a10,10,0,0,1,10,10V610a0,0,0,0,1,0,0h-23.65a0,0,0,0,1,0,0V586.83a10,10,0,0,1,10-10Z"/><rect class="cls-15" x="2610.2" y="442" width="82" height="9"/><rect class="cls-16" x="2692.2" y="442" width="319" height="9"/><rect class="cls-17" x="2334.2" y="126" width="80" height="546"/><rect class="cls-18" x="2414.2" y="126" width="118" height="546"/><rect class="cls-19" x="2431.2" y="151" width="37.35" height="73.79"/><rect class="cls-19" x="2481.86" y="151" width="37.35" height="73.79"/><rect class="cls-19" x="2431.2" y="237.24" width="37.35" height="73.79"/><rect class="cls-19" x="2481.86" y="237.24" width="37.35" height="73.79"/><rect class="cls-19" x="2431.2" y="323.49" width="37.35" height="73.79"/><rect class="cls-19" x="2481.86" y="323.49" width="37.35" height="73.79"/><rect class="cls-19" x="2431.2" y="409.73" width="37.35" height="73.79"/><rect class="cls-19" x="2481.86" y="409.73" width="37.35" height="73.79"/><rect class="cls-19" x="2431.2" y="495.97" width="37.35" height="73.79"/><rect class="cls-19" x="2481.86" y="495.97" width="37.35" height="73.79"/><rect class="cls-19" x="2431.2" y="582.21" width="37.35" height="73.79"/><rect class="cls-19" x="2481.86" y="582.21" width="37.35" height="73.79"/><rect class="cls-20" x="2363.2" y="113" width="5" height="9"/><rect class="cls-21" x="2368.2" y="113" width="11" height="9"/><rect class="cls-16" x="2414.2" y="122" width="118" height="4"/><rect class="cls-15" x="2334.2" y="122" width="80" height="4"/><rect class="cls-22" x="3093.2" y="321.08" width="365" height="389.05"/><rect class="cls-23" x="3093.2" y="321" width="67.84" height="351"/><rect class="cls-24" x="3104.7" y="364.5" width="19" height="19"/><rect class="cls-24" x="3129.7" y="364.5" width="19" height="19"/><rect class="cls-24" x="3105.2" y="393" width="19" height="19"/><rect class="cls-24" x="3130.2" y="393" width="19" height="19"/><rect class="cls-24" x="3104.7" y="421.5" width="19" height="19"/><rect class="cls-24" x="3129.7" y="421.5" width="19" height="19"/><rect class="cls-24" x="3105.2" y="450" width="19" height="19"/><rect class="cls-24" x="3130.2" y="450" width="19" height="19"/><rect class="cls-24" x="3104.7" y="478.5" width="19" height="19"/><rect class="cls-24" x="3129.7" y="478.5" width="19" height="19"/><rect class="cls-24" x="3105.2" y="507" width="19" height="19"/><rect class="cls-24" x="3130.2" y="507" width="19" height="19"/><rect class="cls-24" x="3104.7" y="535.5" width="19" height="19"/><rect class="cls-24" x="3129.7" y="535.5" width="19" height="19"/><rect class="cls-24" x="3105.2" y="564" width="19" height="19"/><rect class="cls-24" x="3104.7" y="592.5" width="19" height="19"/><rect class="cls-24" x="3129.7" y="592.5" width="19" height="19"/><rect class="cls-24" x="3105.2" y="621" width="19" height="19"/><rect class="cls-24" x="3130.2" y="621" width="19" height="19"/><rect class="cls-24" x="3130.2" y="564" width="19" height="19"/><rect class="cls-24" x="3171.7" y="364.5" width="19" height="19"/><rect class="cls-24" x="3196.7" y="364.5" width="19" height="19"/><rect class="cls-24" x="3172.2" y="393" width="19" height="19"/><rect class="cls-24" x="3197.2" y="393" width="19" height="19"/><rect class="cls-24" x="3171.7" y="421.5" width="19" height="19"/><rect class="cls-24" x="3196.7" y="421.5" width="19" height="19"/><rect class="cls-24" x="3172.2" y="450" width="19" height="19"/><rect class="cls-24" x="3197.2" y="450" width="19" height="19"/><rect class="cls-24" x="3171.7" y="478.5" width="19" height="19"/><rect class="cls-24" x="3196.7" y="478.5" width="19" height="19"/><rect class="cls-24" x="3172.2" y="507" width="19" height="19"/><rect class="cls-24" x="3197.2" y="507" width="19" height="19"/><rect class="cls-24" x="3171.7" y="535.5" width="19" height="19"/><rect class="cls-24" x="3196.7" y="535.5" width="19" height="19"/><rect class="cls-24" x="3172.2" y="564" width="19" height="19"/><rect class="cls-24" x="3171.7" y="592.5" width="19" height="19"/><rect class="cls-24" x="3196.7" y="592.5" width="19" height="19"/><rect class="cls-24" x="3172.2" y="621" width="19" height="19"/><rect class="cls-24" x="3197.2" y="621" width="19" height="19"/><rect class="cls-24" x="3197.2" y="564" width="19" height="19"/><rect class="cls-24" x="3225.7" y="364.5" width="19" height="19"/><rect class="cls-24" x="3250.7" y="364.5" width="19" height="19"/><rect class="cls-24" x="3226.2" y="393" width="19" height="19"/><rect class="cls-24" x="3251.2" y="393" width="19" height="19"/><rect class="cls-24" x="3225.7" y="421.5" width="19" height="19"/><rect class="cls-24" x="3250.7" y="421.5" width="19" height="19"/><rect class="cls-24" x="3226.2" y="450" width="19" height="19"/><rect class="cls-24" x="3251.2" y="450" width="19" height="19"/><rect class="cls-24" x="3225.7" y="478.5" width="19" height="19"/><rect class="cls-24" x="3250.7" y="478.5" width="19" height="19"/><rect class="cls-24" x="3226.2" y="507" width="19" height="19"/><rect class="cls-24" x="3251.2" y="507" width="19" height="19"/><rect class="cls-24" x="3225.7" y="535.5" width="19" height="19"/><rect class="cls-24" x="3250.7" y="535.5" width="19" height="19"/><rect class="cls-24" x="3226.2" y="564" width="19" height="19"/><rect class="cls-24" x="3225.7" y="592.5" width="19" height="19"/><rect class="cls-24" x="3250.7" y="592.5" width="19" height="19"/><rect class="cls-24" x="3226.2" y="621" width="19" height="19"/><rect class="cls-24" x="3251.2" y="621" width="19" height="19"/><rect class="cls-24" x="3251.2" y="564" width="19" height="19"/><rect class="cls-24" x="3339.7" y="364.5" width="19" height="19"/><rect class="cls-24" x="3364.7" y="364.5" width="19" height="19"/><rect class="cls-24" x="3340.2" y="393" width="19" height="19"/><rect class="cls-24" x="3365.2" y="393" width="19" height="19"/><rect class="cls-24" x="3339.7" y="421.5" width="19" height="19"/><rect class="cls-24" x="3364.7" y="421.5" width="19" height="19"/><rect class="cls-24" x="3340.2" y="450" width="19" height="19"/><rect class="cls-24" x="3365.2" y="450" width="19" height="19"/><rect class="cls-24" x="3339.7" y="478.5" width="19" height="19"/><rect class="cls-24" x="3364.7" y="478.5" width="19" height="19"/><rect class="cls-24" x="3340.2" y="507" width="19" height="19"/><rect class="cls-24" x="3365.2" y="507" width="19" height="19"/><rect class="cls-24" x="3339.7" y="535.5" width="19" height="19"/><rect class="cls-24" x="3364.7" y="535.5" width="19" height="19"/><rect class="cls-24" x="3340.2" y="564" width="19" height="19"/><rect class="cls-24" x="3339.7" y="592.5" width="19" height="19"/><rect class="cls-24" x="3364.7" y="592.5" width="19" height="19"/><rect class="cls-24" x="3340.2" y="621" width="19" height="19"/><rect class="cls-24" x="3365.2" y="621" width="19" height="19"/><rect class="cls-24" x="3365.2" y="564" width="19" height="19"/><rect class="cls-24" x="3393.7" y="364.5" width="19" height="19"/><rect class="cls-24" x="3418.7" y="364.5" width="19" height="19"/><rect class="cls-24" x="3394.2" y="393" width="19" height="19"/><rect class="cls-24" x="3419.2" y="393" width="19" height="19"/><rect class="cls-24" x="3393.7" y="421.5" width="19" height="19"/><rect class="cls-24" x="3418.7" y="421.5" width="19" height="19"/><rect class="cls-24" x="3394.2" y="450" width="19" height="19"/><rect class="cls-24" x="3419.2" y="450" width="19" height="19"/><rect class="cls-24" x="3393.7" y="478.5" width="19" height="19"/><rect class="cls-24" x="3418.7" y="478.5" width="19" height="19"/><rect class="cls-24" x="3394.2" y="507" width="19" height="19"/><rect class="cls-24" x="3419.2" y="507" width="19" height="19"/><rect class="cls-24" x="3393.7" y="535.5" width="19" height="19"/><rect class="cls-24" x="3418.7" y="535.5" width="19" height="19"/><rect class="cls-24" x="3394.2" y="564" width="19" height="19"/><rect class="cls-24" x="3393.7" y="592.5" width="19" height="19"/><rect class="cls-24" x="3418.7" y="592.5" width="19" height="19"/><rect class="cls-24" x="3394.2" y="621" width="19" height="19"/><rect class="cls-24" x="3419.2" y="621" width="19" height="19"/><rect class="cls-24" x="3419.2" y="564" width="19" height="19"/><rect class="cls-2" x="2221.2" y="664" width="1920" height="49"/><rect class="cls-25" y="1919.39" width="1920" height="49"/></g></g></svg>