<svg id="Layer_1" data-name="Layer 1" xmlns="http://www.w3.org/2000/svg" viewBox="0 0 1920 1080"><defs><style>.cls-1{fill:#0f0f0f;}.cls-2{fill:#1e1e1e;}.cls-3{fill:#756a3c;}.cls-4{fill:#c1af61;}.cls-5{fill:#d6c467;}.cls-6{fill:#726636;}.cls-7{fill:#fff;}.cls-8{fill:#217037;}.cls-9{fill:#1a5628;}.cls-10{fill:#b2b2b2;}.cls-11{fill:#702020;}.cls-12{fill:#9e2e2e;}.cls-13{fill:#212121;}.cls-14{fill:#3a3a3a;}.cls-15{fill:#6b6b6b;}.cls-16{fill:#a3a3a3;}.cls-17{fill:#244444;}.cls-18{fill:#447a79;}.cls-19{fill:#80d8ff;}.cls-20{fill:#878787;}.cls-21{fill:#b7b7b7;}.cls-22{fill:#a7d3d2;}.cls-23{fill:#97a0a0;}.cls-24{fill:#2d2020;}</style></defs><rect class="cls-1" x="1" y="485.89" width="162.84" height="605.21"/><rect class="cls-1" x="322.95" y="577.71" width="147.68" height="513.38"/><rect class="cls-1" x="509.69" y="719.11" width="143.87" height="369.12"/><rect class="cls-1" x="632.6" y="831.14" width="89.56" height="261.86"/><rect class="cls-1" x="813.63" y="432.63" width="151.49" height="658.46"/><rect class="cls-1" x="950.83" y="417.66" width="1.91" height="14.98"/><rect class="cls-1" x="957.29" y="410.81" width="1.16" height="21.81"/><rect class="cls-2" x="426.8" y="805.26" width="135.29" height="285.83"/><rect class="cls-2" x="131.44" y="830.99" width="126.72" height="260.11"/><rect class="cls-2" x="875.56" y="813.84" width="67.65" height="275.35"/><polygon class="cls-2" points="493.97 781.44 528.03 793.83 562.1 806.21 493.97 806.21 425.85 806.21 459.91 793.83 493.97 781.44"/><rect class="cls-3" x="626.22" y="650.85" width="50.81" height="400.26"/><rect class="cls-4" x="669.76" y="650.85" width="64.79" height="400.26"/><rect class="cls-5" x="669.76" y="581.41" width="64.79" height="70.43"/><rect class="cls-6" x="625.93" y="581.41" width="43.83" height="70.43"/><circle class="cls-7" cx="702.52" cy="615.65" r="24.12"/><polygon class="cls-8" points="702.2 529.78 718.38 555.58 734.55 581.37 702.2 581.37 669.85 581.37 686.02 555.58 702.2 529.78"/><polygon class="cls-9" points="702.16 529.96 658.33 529.96 626.5 581.37 669.76 581.41 702.16 529.96"/><rect class="cls-10" x="783.14" y="812.88" width="2.86" height="32.27"/><rect class="cls-11" x="470.63" y="837.37" width="78.13" height="253.73"/><rect class="cls-12" x="548.76" y="837.37" width="303.94" height="253.73"/><path class="cls-13" d="M503.52,900.8H506a10,10,0,0,1,10,10v26.91a0,0,0,0,1,0,0H493.5a0,0,0,0,1,0,0V910.82A10,10,0,0,1,503.52,900.8Z"/><path class="cls-13" d="M503.52,987.56H506a10,10,0,0,1,10,10v26.91a0,0,0,0,1,0,0H493.5a0,0,0,0,1,0,0V997.58A10,10,0,0,1,503.52,987.56Z"/><path class="cls-14" d="M580.13,897.46h2.49a10,10,0,0,1,10,10v26.91a0,0,0,0,1,0,0H570.11a0,0,0,0,1,0,0V907.48A10,10,0,0,1,580.13,897.46Z"/><path class="cls-14" d="M580.13,984.23h2.49a10,10,0,0,1,10,10v26.91a0,0,0,0,1,0,0H570.11a0,0,0,0,1,0,0V994.24A10,10,0,0,1,580.13,984.23Z"/><path class="cls-14" d="M624.49,897.46H627a10,10,0,0,1,10,10v26.91a0,0,0,0,1,0,0H614.47a0,0,0,0,1,0,0V907.48A10,10,0,0,1,624.49,897.46Z"/><path class="cls-14" d="M624.49,985.17H627a10,10,0,0,1,10,10v26.91a0,0,0,0,1,0,0H614.47a0,0,0,0,1,0,0V995.19A10,10,0,0,1,624.49,985.17Z"/><path class="cls-14" d="M769.15,897.46h2.49a10,10,0,0,1,10,10v26.91a0,0,0,0,1,0,0H759.13a0,0,0,0,1,0,0V907.48A10,10,0,0,1,769.15,897.46Z"/><path class="cls-14" d="M772,985.17h2.49a10,10,0,0,1,10,10v26.91a0,0,0,0,1,0,0H762a0,0,0,0,1,0,0V995.19A10,10,0,0,1,772,985.17Z"/><path class="cls-14" d="M813.51,897.46H816a10,10,0,0,1,10,10v26.91a0,0,0,0,1,0,0H803.49a0,0,0,0,1,0,0V907.48A10,10,0,0,1,813.51,897.46Z"/><path class="cls-14" d="M816.36,985.17h2.49a10,10,0,0,1,10,10v26.91a0,0,0,0,1,0,0H806.34a0,0,0,0,1,0,0V995.19A10,10,0,0,1,816.36,985.17Z"/><rect class="cls-15" x="470.63" y="835.14" width="78.13" height="10.02"/><rect class="cls-16" x="548.76" y="835.14" width="303.94" height="10.02"/><rect class="cls-17" x="207.66" y="530.86" width="76.22" height="560.23"/><rect class="cls-18" x="283.89" y="530.86" width="112.43" height="560.23"/><rect class="cls-19" x="300.08" y="554.68" width="35.58" height="70.3"/><rect class="cls-19" x="348.34" y="554.68" width="35.58" height="70.3"/><rect class="cls-19" x="300.08" y="636.85" width="35.58" height="70.3"/><rect class="cls-19" x="348.34" y="636.85" width="35.58" height="70.3"/><rect class="cls-19" x="300.08" y="719.02" width="35.58" height="70.3"/><rect class="cls-19" x="348.34" y="719.02" width="35.58" height="70.3"/><rect class="cls-19" x="300.08" y="801.19" width="35.58" height="70.3"/><rect class="cls-19" x="348.34" y="801.19" width="35.58" height="70.3"/><rect class="cls-19" x="300.08" y="883.36" width="35.58" height="70.3"/><rect class="cls-19" x="348.34" y="883.36" width="35.58" height="70.3"/><rect class="cls-19" x="300.08" y="965.53" width="35.58" height="70.3"/><rect class="cls-19" x="348.34" y="965.53" width="35.58" height="70.3"/><rect class="cls-20" x="235.29" y="518.48" width="4.76" height="8.57"/><rect class="cls-21" x="240.06" y="518.48" width="10.48" height="8.57"/><rect class="cls-16" x="283.89" y="527.05" width="112.43" height="3.81"/><rect class="cls-15" x="207.66" y="527.05" width="76.22" height="3.81"/><rect class="cls-22" x="930.82" y="716.73" width="347.76" height="373.41"/><rect class="cls-23" x="930.82" y="716.65" width="64.63" height="370.63"/><rect class="cls-24" x="941.78" y="758.1" width="18.1" height="18.1"/><rect class="cls-24" x="965.6" y="758.1" width="18.1" height="18.1"/><rect class="cls-24" x="942.26" y="785.25" width="18.1" height="18.1"/><rect class="cls-24" x="966.07" y="785.25" width="18.1" height="18.1"/><rect class="cls-24" x="941.78" y="812.41" width="18.1" height="18.1"/><rect class="cls-24" x="965.6" y="812.41" width="18.1" height="18.1"/><rect class="cls-24" x="942.26" y="839.56" width="18.1" height="18.1"/><rect class="cls-24" x="966.07" y="839.56" width="18.1" height="18.1"/><rect class="cls-24" x="941.78" y="866.72" width="18.1" height="18.1"/><rect class="cls-24" x="965.6" y="866.72" width="18.1" height="18.1"/><rect class="cls-24" x="942.26" y="893.87" width="18.1" height="18.1"/><rect class="cls-24" x="966.07" y="893.87" width="18.1" height="18.1"/><rect class="cls-24" x="941.78" y="921.02" width="18.1" height="18.1"/><rect class="cls-24" x="965.6" y="921.02" width="18.1" height="18.1"/><rect class="cls-24" x="942.26" y="948.18" width="18.1" height="18.1"/><rect class="cls-24" x="941.78" y="975.33" width="18.1" height="18.1"/><rect class="cls-24" x="965.6" y="975.33" width="18.1" height="18.1"/><rect class="cls-24" x="942.26" y="1002.49" width="18.1" height="18.1"/><rect class="cls-24" x="966.07" y="1002.49" width="18.1" height="18.1"/><rect class="cls-24" x="966.07" y="948.18" width="18.1" height="18.1"/><rect class="cls-24" x="1005.62" y="758.1" width="18.1" height="18.1"/><rect class="cls-24" x="1029.43" y="758.1" width="18.1" height="18.1"/><rect class="cls-24" x="1006.09" y="785.25" width="18.1" height="18.1"/><rect class="cls-24" x="1029.91" y="785.25" width="18.1" height="18.1"/><rect class="cls-24" x="1005.62" y="812.41" width="18.1" height="18.1"/><rect class="cls-24" x="1029.43" y="812.41" width="18.1" height="18.1"/><rect class="cls-24" x="1006.09" y="839.56" width="18.1" height="18.1"/><rect class="cls-24" x="1029.91" y="839.56" width="18.1" height="18.1"/><rect class="cls-24" x="1005.62" y="866.72" width="18.1" height="18.1"/><rect class="cls-24" x="1029.43" y="866.72" width="18.1" height="18.1"/><rect class="cls-24" x="1006.09" y="893.87" width="18.1" height="18.1"/><rect class="cls-24" x="1029.91" y="893.87" width="18.1" height="18.1"/><rect class="cls-24" x="1005.62" y="921.02" width="18.1" height="18.1"/><rect class="cls-24" x="1029.43" y="921.02" width="18.1" height="18.1"/><rect class="cls-24" x="1006.09" y="948.18" width="18.1" height="18.1"/><rect class="cls-24" x="1005.62" y="975.33" width="18.1" height="18.1"/><rect class="cls-24" x="1029.43" y="975.33" width="18.1" height="18.1"/><rect class="cls-24" x="1006.09" y="1002.49" width="18.1" height="18.1"/><rect class="cls-24" x="1029.91" y="1002.49" width="18.1" height="18.1"/><rect class="cls-24" x="1029.91" y="948.18" width="18.1" height="18.1"/><rect class="cls-24" x="1057.07" y="758.1" width="18.1" height="18.1"/><rect class="cls-24" x="1080.88" y="758.1" width="18.1" height="18.1"/><rect class="cls-24" x="1057.54" y="785.25" width="18.1" height="18.1"/><rect class="cls-24" x="1081.36" y="785.25" width="18.1" height="18.1"/><rect class="cls-24" x="1057.07" y="812.41" width="18.1" height="18.1"/><rect class="cls-24" x="1080.88" y="812.41" width="18.1" height="18.1"/><rect class="cls-24" x="1057.54" y="839.56" width="18.1" height="18.1"/><rect class="cls-24" x="1081.36" y="839.56" width="18.1" height="18.1"/><rect class="cls-24" x="1057.07" y="866.72" width="18.1" height="18.1"/><rect class="cls-24" x="1080.88" y="866.72" width="18.1" height="18.1"/><rect class="cls-24" x="1057.54" y="893.87" width="18.1" height="18.1"/><rect class="cls-24" x="1081.36" y="893.87" width="18.1" height="18.1"/><rect class="cls-24" x="1057.07" y="921.02" width="18.1" height="18.1"/><rect class="cls-24" x="1080.88" y="921.02" width="18.1" height="18.1"/><rect class="cls-24" x="1057.54" y="948.18" width="18.1" height="18.1"/><rect class="cls-24" x="1057.07" y="975.33" width="18.1" height="18.1"/><rect class="cls-24" x="1080.88" y="975.33" width="18.1" height="18.1"/><rect class="cls-24" x="1057.54" y="1002.49" width="18.1" height="18.1"/><rect class="cls-24" x="1081.36" y="1002.49" width="18.1" height="18.1"/><rect class="cls-24" x="1081.36" y="948.18" width="18.1" height="18.1"/><rect class="cls-24" x="1165.68" y="758.1" width="18.1" height="18.1"/><rect class="cls-24" x="1189.5" y="758.1" width="18.1" height="18.1"/><rect class="cls-24" x="1166.16" y="785.25" width="18.1" height="18.1"/><rect class="cls-24" x="1189.98" y="785.25" width="18.1" height="18.1"/><rect class="cls-24" x="1165.68" y="812.41" width="18.1" height="18.1"/><rect class="cls-24" x="1189.5" y="812.41" width="18.1" height="18.1"/><rect class="cls-24" x="1166.16" y="839.56" width="18.1" height="18.1"/><rect class="cls-24" x="1189.98" y="839.56" width="18.1" height="18.1"/><rect class="cls-24" x="1165.68" y="866.72" width="18.1" height="18.1"/><rect class="cls-24" x="1189.5" y="866.72" width="18.1" height="18.1"/><rect class="cls-24" x="1166.16" y="893.87" width="18.1" height="18.1"/><rect class="cls-24" x="1189.98" y="893.87" width="18.1" height="18.1"/><rect class="cls-24" x="1165.68" y="921.02" width="18.1" height="18.1"/><rect class="cls-24" x="1189.5" y="921.02" width="18.1" height="18.1"/><rect class="cls-24" x="1166.16" y="948.18" width="18.1" height="18.1"/><rect class="cls-24" x="1165.68" y="975.33" width="18.1" height="18.1"/><rect class="cls-24" x="1189.5" y="975.33" width="18.1" height="18.1"/><rect class="cls-24" x="1166.16" y="1002.49" width="18.1" height="18.1"/><rect class="cls-24" x="1189.98" y="1002.49" width="18.1" height="18.1"/><rect class="cls-24" x="1189.98" y="948.18" width="18.1" height="18.1"/><rect class="cls-24" x="1217.13" y="758.1" width="18.1" height="18.1"/><rect class="cls-24" x="1240.95" y="758.1" width="18.1" height="18.1"/><rect class="cls-24" x="1217.61" y="785.25" width="18.1" height="18.1"/><rect class="cls-24" x="1241.43" y="785.25" width="18.1" height="18.1"/><rect class="cls-24" x="1217.13" y="812.41" width="18.1" height="18.1"/><rect class="cls-24" x="1240.95" y="812.41" width="18.1" height="18.1"/><rect class="cls-24" x="1217.61" y="839.56" width="18.1" height="18.1"/><rect class="cls-24" x="1241.43" y="839.56" width="18.1" height="18.1"/><rect class="cls-24" x="1217.13" y="866.72" width="18.1" height="18.1"/><rect class="cls-24" x="1240.95" y="866.72" width="18.1" height="18.1"/><rect class="cls-24" x="1217.61" y="893.87" width="18.1" height="18.1"/><rect class="cls-24" x="1241.43" y="893.87" width="18.1" height="18.1"/><rect class="cls-24" x="1217.13" y="921.02" width="18.1" height="18.1"/><rect class="cls-24" x="1240.95" y="921.02" width="18.1" height="18.1"/><rect class="cls-24" x="1217.61" y="948.18" width="18.1" height="18.1"/><rect class="cls-24" x="1217.13" y="975.33" width="18.1" height="18.1"/><rect class="cls-24" x="1240.95" y="975.33" width="18.1" height="18.1"/><rect class="cls-24" x="1217.61" y="1002.49" width="18.1" height="18.1"/><rect class="cls-24" x="1241.43" y="1002.49" width="18.1" height="18.1"/><rect class="cls-24" x="1241.43" y="948.18" width="18.1" height="18.1"/></svg>